<svg width="240" height="40" viewBox="0 0 240 40" fill="none" xmlns="http://www.w3.org/2000/svg">
<path d="M40 0H0V40H40V0Z" fill="#219653"/>
<path d="M19.9995 26.9581L26.0828 25.4164L28.6245 33.2498L19.9995 26.9581ZM33.9995 16.8331H23.2911L19.9995 6.74976L16.7078 16.8331H5.99946L14.6661 23.0831L11.3745 33.1664L20.0411 26.9164L25.3745 23.0831L33.9995 16.8331Z" fill="white"/>
<path d="M90 0H50V40H90V0Z" fill="#219653"/>
<path d="M69.9995 26.9581L76.0828 25.4164L78.6244 33.2498L69.9995 26.9581ZM83.9995 16.8331H73.2911L69.9995 6.74976L66.7078 16.8331H55.9995L64.6661 23.0831L61.3745 33.1664L70.0411 26.9164L75.3744 23.0831L83.9995 16.8331Z" fill="white"/>
<path d="M140 0H100V40H140V0Z" fill="#219653"/>
<path d="M119.999 26.9581L126.083 25.4164L128.624 33.2498L119.999 26.9581ZM133.999 16.8331H123.291L119.999 6.74976L116.708 16.8331H105.999L114.666 23.0831L111.374 33.1664L120.041 26.9164L125.374 23.0831L133.999 16.8331Z" fill="white"/>
<path d="M190 0H150V40H190V0Z" fill="#219653"/>
<path d="M169.999 26.9581L176.083 25.4164L178.624 33.2498L169.999 26.9581ZM183.999 16.8331H173.291L169.999 6.74976L166.708 16.8331H155.999L164.666 23.0831L161.374 33.1664L170.041 26.9164L175.374 23.0831L183.999 16.8331Z" fill="white"/>
<path d="M240 0H200V40H240V0Z" fill="#219653"/>
<path d="M219.999 26.9581L226.083 25.4164L228.624 33.2498L219.999 26.9581ZM233.999 16.8331H223.291L219.999 6.74976L216.708 16.8331H205.999L214.666 23.0831L211.374 33.1664L220.041 26.9164L225.374 23.0831L233.999 16.8331Z" fill="white"/>
</svg>
