<svg xmlns="http://www.w3.org/2000/svg" xmlns:xlink="http://www.w3.org/1999/xlink" zoomAndPan="magnify" preserveAspectRatio="xMidYMid meet" version="1.0" viewBox="413.71 268.41 408.64 187.5"><defs><g/></defs><g fill="#ffffff" fill-opacity="1"><g transform="translate(407.929732, 367.507656)"><g><path d="M 43.421875 -97.578125 C 59.679688 -97.578125 71.851562 -93.507812 79.9375 -85.375 C 88.019531 -77.25 92.0625 -65.421875 92.0625 -49.890625 C 92.0625 -39.878906 90.085938 -31.101562 86.140625 -23.5625 C 82.191406 -16.03125 76.472656 -10.21875 68.984375 -6.125 C 61.492188 -2.039062 52.554688 0 42.171875 0 L 34.1875 -0.140625 C 29.039062 -0.316406 25.269531 -0.40625 22.875 -0.40625 C 15.34375 -0.40625 9.644531 -0.269531 5.78125 0 L 5.78125 -2.75 C 9.09375 -2.9375 11.503906 -3.304688 13.015625 -3.859375 C 14.535156 -4.410156 15.570312 -5.46875 16.125 -7.03125 C 16.675781 -8.59375 16.953125 -11.117188 16.953125 -14.609375 L 16.953125 -82.96875 C 16.953125 -86.457031 16.675781 -88.984375 16.125 -90.546875 C 15.570312 -92.109375 14.535156 -93.164062 13.015625 -93.71875 C 11.503906 -94.269531 9.09375 -94.640625 5.78125 -94.828125 L 5.78125 -97.578125 C 9 -97.304688 13.457031 -97.171875 19.15625 -97.171875 L 30.875 -97.3125 C 37.125 -97.488281 41.304688 -97.578125 43.421875 -97.578125 Z M 39.96875 -95.09375 C 37.125 -95.09375 34.988281 -94.769531 33.5625 -94.125 C 32.132812 -93.488281 31.144531 -92.34375 30.59375 -90.6875 C 30.039062 -89.03125 29.765625 -86.550781 29.765625 -83.25 L 29.765625 -14.328125 C 29.765625 -11.023438 30.039062 -8.546875 30.59375 -6.890625 C 31.144531 -5.234375 32.132812 -4.082031 33.5625 -3.4375 C 34.988281 -2.800781 37.171875 -2.484375 40.109375 -2.484375 C 49.847656 -2.484375 57.519531 -4.25 63.125 -7.78125 C 68.726562 -11.320312 72.65625 -16.492188 74.90625 -23.296875 C 77.15625 -30.097656 78.28125 -38.78125 78.28125 -49.34375 C 78.28125 -59.90625 77.039062 -68.515625 74.5625 -75.171875 C 72.082031 -81.835938 68.0625 -86.820312 62.5 -90.125 C 56.945312 -93.4375 49.4375 -95.09375 39.96875 -95.09375 Z M 39.96875 -95.09375 "/></g></g></g><g fill="#ffffff" fill-opacity="1"><g transform="translate(512.392417, 367.507656)"><g><path d="M 46.859375 -72.90625 C 50.535156 -72.90625 53.546875 -71.847656 55.890625 -69.734375 C 58.234375 -67.628906 59.40625 -65.054688 59.40625 -62.015625 C 59.40625 -59.628906 58.691406 -57.585938 57.265625 -55.890625 C 55.835938 -54.191406 53.929688 -53.34375 51.546875 -53.34375 C 49.523438 -53.34375 47.800781 -53.984375 46.375 -55.265625 C 44.957031 -56.554688 44.25 -58.300781 44.25 -60.5 C 44.25 -63.539062 45.804688 -66.023438 48.921875 -67.953125 C 48.285156 -68.867188 47.320312 -69.328125 46.03125 -69.328125 C 42.445312 -69.328125 39.1875 -67.925781 36.25 -65.125 C 33.3125 -62.320312 31.015625 -58.898438 29.359375 -54.859375 C 27.703125 -50.816406 26.875 -47.003906 26.875 -43.421875 L 26.875 -14.203125 C 26.875 -9.972656 28.09375 -7.03125 30.53125 -5.375 C 32.96875 -3.71875 36.617188 -2.890625 41.484375 -2.890625 L 41.484375 0 L 38.171875 -0.140625 C 28.804688 -0.410156 22.835938 -0.546875 20.265625 -0.546875 C 17.867188 -0.546875 12.445312 -0.363281 4 0 L 4 -2.890625 C 7.851562 -2.890625 10.5625 -3.601562 12.125 -5.03125 C 13.6875 -6.457031 14.46875 -9.050781 14.46875 -12.8125 L 14.46875 -55.953125 C 14.46875 -60.179688 13.6875 -63.257812 12.125 -65.1875 C 10.5625 -67.125 7.851562 -68.09375 4 -68.09375 L 4 -70.984375 C 6.9375 -70.703125 9.785156 -70.5625 12.546875 -70.5625 C 18.328125 -70.5625 23.101562 -71.207031 26.875 -72.5 L 26.875 -55.265625 C 28.53125 -59.859375 31.171875 -63.945312 34.796875 -67.53125 C 38.429688 -71.113281 42.453125 -72.90625 46.859375 -72.90625 Z M 46.859375 -72.90625 "/></g></g></g><g fill="#ffffff" fill-opacity="1"><g transform="translate(578.543156, 367.507656)"><g><path d="M 17.359375 -15.71875 C 19.753906 -15.71875 21.820312 -14.84375 23.5625 -13.09375 C 25.3125 -11.34375 26.1875 -9.273438 26.1875 -6.890625 C 26.1875 -4.503906 25.3125 -2.4375 23.5625 -0.6875 C 21.820312 1.050781 19.753906 1.921875 17.359375 1.921875 C 14.972656 1.921875 12.90625 1.050781 11.15625 -0.6875 C 9.414062 -2.4375 8.546875 -4.503906 8.546875 -6.890625 C 8.546875 -9.273438 9.414062 -11.34375 11.15625 -13.09375 C 12.90625 -14.84375 14.972656 -15.71875 17.359375 -15.71875 Z M 17.359375 -15.71875 "/></g></g></g><g fill="#ffffff" fill-opacity="1"><g transform="translate(618.096026, 367.507656)"><g><path d="M 35.28125 -99.09375 C 39.320312 -99.09375 42.515625 -98.65625 44.859375 -97.78125 C 47.203125 -96.914062 49.613281 -95.65625 52.09375 -94 C 54.113281 -92.707031 55.675781 -92.0625 56.78125 -92.0625 C 57.613281 -92.0625 58.257812 -92.546875 58.71875 -93.515625 C 59.175781 -94.484375 59.539062 -96.023438 59.8125 -98.140625 L 62.984375 -98.140625 C 62.523438 -92.804688 62.296875 -83.429688 62.296875 -70.015625 L 59.125 -70.015625 C 58.570312 -77.460938 56.4375 -83.734375 52.71875 -88.828125 C 49 -93.929688 43.601562 -96.484375 36.53125 -96.484375 C 31.5625 -96.484375 27.515625 -94.988281 24.390625 -92 C 21.265625 -89.007812 19.703125 -85.171875 19.703125 -80.484375 C 19.703125 -76.992188 20.503906 -73.960938 22.109375 -71.390625 C 23.722656 -68.816406 25.769531 -66.609375 28.25 -64.765625 C 30.726562 -62.929688 34.269531 -60.59375 38.875 -57.75 L 42.859375 -55.265625 C 48.648438 -51.679688 53.222656 -48.535156 56.578125 -45.828125 C 59.929688 -43.117188 62.617188 -40.015625 64.640625 -36.515625 C 66.660156 -33.023438 67.671875 -28.9375 67.671875 -24.25 C 67.671875 -15.894531 64.914062 -9.441406 59.40625 -4.890625 C 53.894531 -0.347656 46.910156 1.921875 38.453125 1.921875 C 34.046875 1.921875 30.441406 1.460938 27.640625 0.546875 C 24.835938 -0.367188 22.148438 -1.609375 19.578125 -3.171875 C 17.554688 -4.453125 15.992188 -5.09375 14.890625 -5.09375 C 14.054688 -5.09375 13.410156 -4.609375 12.953125 -3.640625 C 12.492188 -2.679688 12.128906 -1.144531 11.859375 0.96875 L 8.6875 0.96875 C 9.050781 -4.082031 9.234375 -15.109375 9.234375 -32.109375 L 12.40625 -32.109375 C 13.050781 -22.828125 15.347656 -15.289062 19.296875 -9.5 C 23.242188 -3.71875 29.304688 -0.828125 37.484375 -0.828125 C 42.453125 -0.828125 46.679688 -2.363281 50.171875 -5.4375 C 53.660156 -8.519531 55.40625 -13.09375 55.40625 -19.15625 C 55.40625 -24.300781 53.679688 -28.664062 50.234375 -32.25 C 46.785156 -35.832031 41.34375 -39.875 33.90625 -44.375 C 28.488281 -47.6875 24.101562 -50.628906 20.75 -53.203125 C 17.394531 -55.773438 14.660156 -58.875 12.546875 -62.5 C 10.429688 -66.132812 9.375 -70.382812 9.375 -75.25 C 9.375 -82.96875 11.851562 -88.867188 16.8125 -92.953125 C 21.769531 -97.046875 27.925781 -99.09375 35.28125 -99.09375 Z M 35.28125 -99.09375 "/></g></g></g><g fill="#ffffff" fill-opacity="1"><g transform="translate(697.33899, 367.507656)"><g><path d="M 114.671875 -97.171875 C 118.804688 -97.171875 122.253906 -97.304688 125.015625 -97.578125 L 125.015625 -94.828125 C 119.867188 -93.628906 116.238281 -89.628906 114.125 -82.828125 L 88.078125 0.6875 L 85.859375 0.6875 L 61.890625 -70.296875 L 39.96875 0.6875 L 37.765625 0.6875 L 8.546875 -86 C 6.617188 -91.695312 3.445312 -94.640625 -0.96875 -94.828125 L -0.96875 -97.578125 C 2.800781 -97.304688 7.71875 -97.171875 13.78125 -97.171875 C 20.394531 -97.171875 25.359375 -97.304688 28.671875 -97.578125 L 28.671875 -94.828125 C 26.191406 -94.640625 24.445312 -94.175781 23.4375 -93.4375 C 22.425781 -92.707031 21.921875 -91.5625 21.921875 -90 C 21.921875 -88.53125 22.425781 -86.28125 23.4375 -83.25 L 43.546875 -21.78125 L 60.375 -75.109375 L 56.640625 -86 C 54.804688 -91.695312 52.097656 -94.640625 48.515625 -94.828125 L 48.515625 -97.578125 C 51.828125 -97.304688 56.285156 -97.171875 61.890625 -97.171875 C 69.785156 -97.171875 75.664062 -97.304688 79.53125 -97.578125 L 79.53125 -94.828125 C 76.039062 -94.640625 73.601562 -94.25 72.21875 -93.65625 C 70.84375 -93.0625 70.15625 -91.796875 70.15625 -89.859375 C 70.15625 -88.210938 70.613281 -86.007812 71.53125 -83.25 L 91.375 -21.921875 L 108.328125 -75.25 C 109.796875 -79.75 110.53125 -83.472656 110.53125 -86.421875 C 110.53125 -89.453125 109.613281 -91.585938 107.78125 -92.828125 C 105.945312 -94.066406 102.960938 -94.734375 98.828125 -94.828125 L 98.828125 -97.578125 C 104.054688 -97.304688 109.335938 -97.171875 114.671875 -97.171875 Z M 114.671875 -97.171875 "/></g></g></g><g fill="#ffffff" fill-opacity="1"><g transform="translate(460.332867, 455.745249)"><g><path d="M 14.21875 -24.859375 C 15.957031 -24.859375 17.65625 -24.519531 19.3125 -23.84375 C 20.976562 -23.175781 22.414062 -22.238281 23.625 -21.03125 L 21.1875 -18 C 20.289062 -18.96875 19.226562 -19.734375 18 -20.296875 C 16.769531 -20.859375 15.53125 -21.140625 14.28125 -21.140625 C 11.8125 -21.140625 9.722656 -20.296875 8.015625 -18.609375 C 6.304688 -16.929688 5.453125 -14.878906 5.453125 -12.453125 C 5.453125 -9.992188 6.304688 -7.921875 8.015625 -6.234375 C 9.722656 -4.554688 11.8125 -3.71875 14.28125 -3.71875 C 16.851562 -3.71875 19.15625 -4.691406 21.1875 -6.640625 L 23.65625 -3.890625 C 22.382812 -2.640625 20.898438 -1.648438 19.203125 -0.921875 C 17.503906 -0.191406 15.796875 0.171875 14.078125 0.171875 C 10.441406 0.171875 7.382812 -1.035156 4.90625 -3.453125 C 2.4375 -5.867188 1.203125 -8.851562 1.203125 -12.40625 C 1.203125 -15.925781 2.457031 -18.878906 4.96875 -21.265625 C 7.476562 -23.660156 10.5625 -24.859375 14.21875 -24.859375 Z M 14.21875 -24.859375 "/></g></g></g><g fill="#ffffff" fill-opacity="1"><g transform="translate(513.277372, 455.745249)"><g><path d="M 7.421875 -3.78125 L 18.140625 -3.78125 L 18.140625 0 L 3.25 0 L 3.25 -24.75 L 7.421875 -24.75 Z M 7.421875 -3.78125 "/></g></g></g><g fill="#ffffff" fill-opacity="1"><g transform="translate(560.457704, 455.745249)"><g><path d="M 7.421875 0 L 3.25 0 L 3.25 -24.75 L 7.421875 -24.75 Z M 7.421875 0 "/></g></g></g><g fill="#ffffff" fill-opacity="1"><g transform="translate(599.43379, 455.745249)"><g><path d="M 24.71875 0 L 20.609375 0 L 7.421875 -17.75 L 7.421875 0 L 3.25 0 L 3.25 -24.75 L 7.359375 -24.75 L 20.609375 -6.96875 L 20.609375 -24.75 L 24.71875 -24.75 Z M 24.71875 0 "/></g></g></g><g fill="#ffffff" fill-opacity="1"><g transform="translate(655.737787, 455.745249)"><g><path d="M 7.421875 0 L 3.25 0 L 3.25 -24.75 L 7.421875 -24.75 Z M 7.421875 0 "/></g></g></g><g fill="#ffffff" fill-opacity="1"><g transform="translate(694.713883, 455.745249)"><g><path d="M 14.21875 -24.859375 C 15.957031 -24.859375 17.65625 -24.519531 19.3125 -23.84375 C 20.976562 -23.175781 22.414062 -22.238281 23.625 -21.03125 L 21.1875 -18 C 20.289062 -18.96875 19.226562 -19.734375 18 -20.296875 C 16.769531 -20.859375 15.53125 -21.140625 14.28125 -21.140625 C 11.8125 -21.140625 9.722656 -20.296875 8.015625 -18.609375 C 6.304688 -16.929688 5.453125 -14.878906 5.453125 -12.453125 C 5.453125 -9.992188 6.304688 -7.921875 8.015625 -6.234375 C 9.722656 -4.554688 11.8125 -3.71875 14.28125 -3.71875 C 16.851562 -3.71875 19.15625 -4.691406 21.1875 -6.640625 L 23.65625 -3.890625 C 22.382812 -2.640625 20.898438 -1.648438 19.203125 -0.921875 C 17.503906 -0.191406 15.796875 0.171875 14.078125 0.171875 C 10.441406 0.171875 7.382812 -1.035156 4.90625 -3.453125 C 2.4375 -5.867188 1.203125 -8.851562 1.203125 -12.40625 C 1.203125 -15.925781 2.457031 -18.878906 4.96875 -21.265625 C 7.476562 -23.660156 10.5625 -24.859375 14.21875 -24.859375 Z M 14.21875 -24.859375 "/></g></g></g><g fill="#ffffff" fill-opacity="1"><g transform="translate(747.658395, 455.745249)"><g><path d="M 11.390625 -24.921875 C 14.585938 -24.921875 17.472656 -24.070312 20.046875 -22.375 L 18.3125 -18.703125 C 15.789062 -20.234375 13.375 -21 11.0625 -21 C 9.8125 -21 8.828125 -20.773438 8.109375 -20.328125 C 7.390625 -19.878906 7.03125 -19.242188 7.03125 -18.421875 C 7.03125 -17.597656 7.359375 -16.894531 8.015625 -16.3125 C 8.679688 -15.738281 9.507812 -15.316406 10.5 -15.046875 C 11.488281 -14.773438 12.5625 -14.429688 13.71875 -14.015625 C 14.875 -13.609375 15.945312 -13.171875 16.9375 -12.703125 C 17.925781 -12.242188 18.742188 -11.523438 19.390625 -10.546875 C 20.035156 -9.578125 20.359375 -8.394531 20.359375 -7 C 20.359375 -4.832031 19.492188 -3.097656 17.765625 -1.796875 C 16.035156 -0.503906 13.789062 0.140625 11.03125 0.140625 C 9.144531 0.140625 7.316406 -0.210938 5.546875 -0.921875 C 3.785156 -1.628906 2.242188 -2.582031 0.921875 -3.78125 L 2.71875 -7.390625 C 3.96875 -6.234375 5.34375 -5.34375 6.84375 -4.71875 C 8.34375 -4.09375 9.765625 -3.78125 11.109375 -3.78125 C 12.566406 -3.78125 13.703125 -4.046875 14.515625 -4.578125 C 15.328125 -5.109375 15.734375 -5.84375 15.734375 -6.78125 C 15.734375 -7.632812 15.398438 -8.347656 14.734375 -8.921875 C 14.078125 -9.503906 13.253906 -9.929688 12.265625 -10.203125 C 11.273438 -10.472656 10.203125 -10.800781 9.046875 -11.1875 C 7.890625 -11.582031 6.816406 -11.992188 5.828125 -12.421875 C 4.835938 -12.859375 4.015625 -13.5625 3.359375 -14.53125 C 2.703125 -15.5 2.375 -16.664062 2.375 -18.03125 C 2.375 -20.132812 3.195312 -21.804688 4.84375 -23.046875 C 6.488281 -24.296875 8.671875 -24.921875 11.390625 -24.921875 Z M 11.390625 -24.921875 "/></g></g></g></svg>