<?xml version="1.0" encoding="utf-8"?>
<svg viewBox="8.035 10.63 243.821 98.926" xmlns="http://www.w3.org/2000/svg">
  <g fill="#ffffff" fill-opacity="1" transform="matrix(1, 0, 0, 1, -57.480564, -128.131683)">
    <g transform="translate(112.387856, 206.568795)">
      <g>
        <path d="M 15.75 -35.40625 C 21.644531 -35.40625 26.0625 -33.925781 29 -30.96875 C 31.9375 -28.019531 33.40625 -23.726562 33.40625 -18.09375 C 33.40625 -14.46875 32.6875 -11.285156 31.25 -8.546875 C 29.8125 -5.816406 27.734375 -3.707031 25.015625 -2.21875 C 22.304688 -0.738281 19.066406 0 15.296875 0 L 12.40625 -0.046875 C 10.53125 -0.117188 9.160156 -0.15625 8.296875 -0.15625 C 5.566406 -0.15625 3.5 -0.101562 2.09375 0 L 2.09375 -1 C 3.300781 -1.0625 4.175781 -1.191406 4.71875 -1.390625 C 5.269531 -1.597656 5.644531 -1.984375 5.84375 -2.546875 C 6.050781 -3.117188 6.15625 -4.035156 6.15625 -5.296875 L 6.15625 -30.09375 C 6.15625 -31.363281 6.050781 -32.28125 5.84375 -32.84375 C 5.644531 -33.414062 5.269531 -33.800781 4.71875 -34 C 4.175781 -34.195312 3.300781 -34.332031 2.09375 -34.40625 L 2.09375 -35.40625 C 3.257812 -35.300781 4.878906 -35.25 6.953125 -35.25 L 11.203125 -35.296875 C 13.460938 -35.367188 14.976562 -35.40625 15.75 -35.40625 Z M 14.5 -34.5 C 13.46875 -34.5 12.691406 -34.378906 12.171875 -34.140625 C 11.660156 -33.910156 11.300781 -33.492188 11.09375 -32.890625 C 10.894531 -32.296875 10.796875 -31.398438 10.796875 -30.203125 L 10.796875 -5.203125 C 10.796875 -4.003906 10.894531 -3.101562 11.09375 -2.5 C 11.300781 -1.894531 11.660156 -1.476562 12.171875 -1.25 C 12.691406 -1.019531 13.484375 -0.90625 14.546875 -0.90625 C 18.078125 -0.90625 20.859375 -1.546875 22.890625 -2.828125 C 24.929688 -4.109375 26.359375 -5.984375 27.171875 -8.453125 C 27.992188 -10.921875 28.40625 -14.070312 28.40625 -17.90625 C 28.40625 -21.738281 27.953125 -24.863281 27.046875 -27.28125 C 26.148438 -29.695312 24.691406 -31.503906 22.671875 -32.703125 C 20.660156 -33.898438 17.9375 -34.5 14.5 -34.5 Z M 14.5 -34.5 "/>
      </g>
    </g>
  </g>
  <g fill="#ffffff" fill-opacity="1" transform="matrix(1, 0, 0, 1, -57.480564, -128.131683)">
    <g transform="translate(150.282251, 206.568795)">
      <g>
        <path d="M 17 -26.453125 C 18.332031 -26.453125 19.421875 -26.066406 20.265625 -25.296875 C 21.117188 -24.535156 21.546875 -23.601562 21.546875 -22.5 C 21.546875 -21.632812 21.285156 -20.890625 20.765625 -20.265625 C 20.253906 -19.648438 19.566406 -19.34375 18.703125 -19.34375 C 17.960938 -19.34375 17.332031 -19.578125 16.8125 -20.046875 C 16.300781 -20.515625 16.046875 -21.148438 16.046875 -21.953125 C 16.046875 -23.046875 16.613281 -23.945312 17.75 -24.65625 C 17.519531 -24.988281 17.171875 -25.15625 16.703125 -25.15625 C 15.398438 -25.15625 14.210938 -24.644531 13.140625 -23.625 C 12.078125 -22.601562 11.242188 -21.359375 10.640625 -19.890625 C 10.046875 -18.429688 9.75 -17.050781 9.75 -15.75 L 9.75 -5.15625 C 9.75 -3.613281 10.191406 -2.539062 11.078125 -1.9375 C 11.960938 -1.34375 13.285156 -1.046875 15.046875 -1.046875 L 15.046875 0 L 13.84375 -0.046875 C 10.445312 -0.148438 8.28125 -0.203125 7.34375 -0.203125 C 6.476562 -0.203125 4.515625 -0.132812 1.453125 0 L 1.453125 -1.046875 C 2.847656 -1.046875 3.828125 -1.300781 4.390625 -1.8125 C 4.960938 -2.332031 5.25 -3.28125 5.25 -4.65625 L 5.25 -20.296875 C 5.25 -21.828125 4.960938 -22.941406 4.390625 -23.640625 C 3.828125 -24.347656 2.847656 -24.703125 1.453125 -24.703125 L 1.453125 -25.75 C 2.515625 -25.644531 3.546875 -25.59375 4.546875 -25.59375 C 6.648438 -25.59375 8.382812 -25.828125 9.75 -26.296875 L 9.75 -20.046875 C 10.351562 -21.710938 11.3125 -23.195312 12.625 -24.5 C 13.9375 -25.800781 15.394531 -26.453125 17 -26.453125 Z M 17 -26.453125 "/>
      </g>
    </g>
  </g>
  <g fill="#ffffff" fill-opacity="1" transform="matrix(1, 0, 0, 1, -57.480564, -128.131683)">
    <g transform="translate(174.278805, 206.568795)">
      <g>
        <path d="M 6.296875 -5.703125 C 7.160156 -5.703125 7.910156 -5.382812 8.546875 -4.75 C 9.179688 -4.113281 9.5 -3.363281 9.5 -2.5 C 9.5 -1.632812 9.179688 -0.882812 8.546875 -0.25 C 7.910156 0.382812 7.160156 0.703125 6.296875 0.703125 C 5.429688 0.703125 4.679688 0.382812 4.046875 -0.25 C 3.410156 -0.882812 3.09375 -1.632812 3.09375 -2.5 C 3.09375 -3.363281 3.410156 -4.113281 4.046875 -4.75 C 4.679688 -5.382812 5.429688 -5.703125 6.296875 -5.703125 Z M 6.296875 -5.703125 "/>
      </g>
    </g>
  </g>
  <g fill="#ffffff" fill-opacity="1" transform="matrix(1, 0, 0, 1, -57.480564, -128.131683)">
    <g transform="translate(188.626846, 206.568795)">
      <g>
        <path d="M 12.796875 -35.953125 C 14.265625 -35.953125 15.421875 -35.789062 16.265625 -35.46875 C 17.117188 -35.15625 18 -34.695312 18.90625 -34.09375 C 19.632812 -33.632812 20.195312 -33.40625 20.59375 -33.40625 C 20.894531 -33.40625 21.128906 -33.578125 21.296875 -33.921875 C 21.460938 -34.273438 21.597656 -34.832031 21.703125 -35.59375 L 22.84375 -35.59375 C 22.675781 -33.664062 22.59375 -30.269531 22.59375 -25.40625 L 21.453125 -25.40625 C 21.253906 -28.101562 20.476562 -30.375 19.125 -32.21875 C 17.769531 -34.070312 15.8125 -35 13.25 -35 C 11.445312 -35 9.976562 -34.457031 8.84375 -33.375 C 7.71875 -32.289062 7.15625 -30.898438 7.15625 -29.203125 C 7.15625 -27.929688 7.445312 -26.828125 8.03125 -25.890625 C 8.613281 -24.960938 9.351562 -24.164062 10.25 -23.5 C 11.144531 -22.832031 12.425781 -21.984375 14.09375 -20.953125 L 15.546875 -20.046875 C 17.648438 -18.742188 19.304688 -17.601562 20.515625 -16.625 C 21.734375 -15.644531 22.707031 -14.519531 23.4375 -13.25 C 24.175781 -11.976562 24.546875 -10.492188 24.546875 -8.796875 C 24.546875 -5.765625 23.546875 -3.421875 21.546875 -1.765625 C 19.546875 -0.117188 17.015625 0.703125 13.953125 0.703125 C 12.347656 0.703125 11.035156 0.535156 10.015625 0.203125 C 9.003906 -0.128906 8.03125 -0.582031 7.09375 -1.15625 C 6.363281 -1.613281 5.800781 -1.84375 5.40625 -1.84375 C 5.101562 -1.84375 4.867188 -1.664062 4.703125 -1.3125 C 4.535156 -0.96875 4.398438 -0.414062 4.296875 0.34375 L 3.15625 0.34375 C 3.28125 -1.488281 3.34375 -5.488281 3.34375 -11.65625 L 4.5 -11.65625 C 4.726562 -8.28125 5.5625 -5.539062 7 -3.4375 C 8.4375 -1.34375 10.632812 -0.296875 13.59375 -0.296875 C 15.394531 -0.296875 16.925781 -0.851562 18.1875 -1.96875 C 19.457031 -3.09375 20.09375 -4.753906 20.09375 -6.953125 C 20.09375 -8.816406 19.46875 -10.398438 18.21875 -11.703125 C 16.96875 -13.003906 14.992188 -14.46875 12.296875 -16.09375 C 10.328125 -17.300781 8.734375 -18.367188 7.515625 -19.296875 C 6.304688 -20.234375 5.316406 -21.359375 4.546875 -22.671875 C 3.785156 -23.992188 3.40625 -25.535156 3.40625 -27.296875 C 3.40625 -30.097656 4.300781 -32.238281 6.09375 -33.71875 C 7.894531 -35.207031 10.128906 -35.953125 12.796875 -35.953125 Z M 12.796875 -35.953125 "/>
      </g>
    </g>
  </g>
  <g fill="#ffffff" fill-opacity="1" transform="matrix(1, 0, 0, 1, -57.480564, -128.131683)">
    <g transform="translate(217.372663, 206.568795)">
      <g>
        <path d="M 41.59375 -35.25 C 43.09375 -35.25 44.34375 -35.300781 45.34375 -35.40625 L 45.34375 -34.40625 C 43.476562 -33.96875 42.164062 -32.515625 41.40625 -30.046875 L 31.953125 0.25 L 31.15625 0.25 L 22.453125 -25.5 L 14.5 0.25 L 13.703125 0.25 L 3.09375 -31.203125 C 2.394531 -33.265625 1.25 -34.332031 -0.34375 -34.40625 L -0.34375 -35.40625 C 1.019531 -35.300781 2.800781 -35.25 5 -35.25 C 7.394531 -35.25 9.195312 -35.300781 10.40625 -35.40625 L 10.40625 -34.40625 C 9.5 -34.332031 8.863281 -34.160156 8.5 -33.890625 C 8.132812 -33.628906 7.953125 -33.21875 7.953125 -32.65625 C 7.953125 -32.113281 8.132812 -31.296875 8.5 -30.203125 L 15.796875 -7.90625 L 21.90625 -27.25 L 20.546875 -31.203125 C 19.878906 -33.265625 18.894531 -34.332031 17.59375 -34.40625 L 17.59375 -35.40625 C 18.800781 -35.300781 20.421875 -35.25 22.453125 -35.25 C 25.316406 -35.25 27.445312 -35.300781 28.84375 -35.40625 L 28.84375 -34.40625 C 27.582031 -34.332031 26.703125 -34.1875 26.203125 -33.96875 C 25.703125 -33.757812 25.453125 -33.300781 25.453125 -32.59375 C 25.453125 -32 25.617188 -31.203125 25.953125 -30.203125 L 33.15625 -7.953125 L 39.296875 -27.296875 C 39.828125 -28.929688 40.09375 -30.28125 40.09375 -31.34375 C 40.09375 -32.445312 39.757812 -33.222656 39.09375 -33.671875 C 38.425781 -34.117188 37.34375 -34.363281 35.84375 -34.40625 L 35.84375 -35.40625 C 37.75 -35.300781 39.664062 -35.25 41.59375 -35.25 Z M 41.59375 -35.25 "/>
      </g>
    </g>
  </g>
  <g fill="#ffffff" fill-opacity="1" transform="matrix(1, 0, 0, 1, -57.480564, -128.131683)">
    <g transform="translate(131.413655, 237.624976)">
      <g>
        <path d="M 5.15625 -9.015625 C 5.789062 -9.015625 6.410156 -8.890625 7.015625 -8.640625 C 7.617188 -8.398438 8.132812 -8.0625 8.5625 -7.625 L 7.6875 -6.53125 C 7.363281 -6.882812 6.976562 -7.160156 6.53125 -7.359375 C 6.082031 -7.566406 5.632812 -7.671875 5.1875 -7.671875 C 4.28125 -7.671875 3.515625 -7.363281 2.890625 -6.75 C 2.273438 -6.144531 1.96875 -5.398438 1.96875 -4.515625 C 1.96875 -3.628906 2.273438 -2.878906 2.890625 -2.265625 C 3.515625 -1.648438 4.28125 -1.34375 5.1875 -1.34375 C 6.113281 -1.34375 6.945312 -1.695312 7.6875 -2.40625 L 8.578125 -1.40625 C 8.117188 -0.957031 7.582031 -0.597656 6.96875 -0.328125 C 6.351562 -0.0664062 5.734375 0.0625 5.109375 0.0625 C 3.785156 0.0625 2.675781 -0.375 1.78125 -1.25 C 0.882812 -2.125 0.4375 -3.207031 0.4375 -4.5 C 0.4375 -5.769531 0.890625 -6.835938 1.796875 -7.703125 C 2.710938 -8.578125 3.832031 -9.015625 5.15625 -9.015625 Z M 5.15625 -9.015625 "/>
      </g>
    </g>
  </g>
  <g fill="#ffffff" fill-opacity="1" transform="matrix(1, 0, 0, 1, -57.480564, -128.131683)">
    <g transform="translate(150.614281, 237.624976)">
      <g>
        <path d="M 2.6875 -1.375 L 6.578125 -1.375 L 6.578125 0 L 1.1875 0 L 1.1875 -8.984375 L 2.6875 -8.984375 Z M 2.6875 -1.375 "/>
      </g>
    </g>
  </g>
  <g fill="#ffffff" fill-opacity="1" transform="matrix(1, 0, 0, 1, -57.480564, -128.131683)">
    <g transform="translate(167.725215, 237.624976)">
      <g>
        <path d="M 2.6875 0 L 1.1875 0 L 1.1875 -8.984375 L 2.6875 -8.984375 Z M 2.6875 0 "/>
      </g>
    </g>
  </g>
  <g fill="#ffffff" fill-opacity="1" transform="matrix(1, 0, 0, 1, -57.480564, -128.131683)">
    <g transform="translate(181.861852, 237.624976)">
      <g>
        <path d="M 8.96875 0 L 7.484375 0 L 2.6875 -6.4375 L 2.6875 0 L 1.1875 0 L 1.1875 -8.984375 L 2.671875 -8.984375 L 7.484375 -2.53125 L 7.484375 -8.984375 L 8.96875 -8.984375 Z M 8.96875 0 "/>
      </g>
    </g>
  </g>
  <g fill="#ffffff" fill-opacity="1" transform="matrix(1, 0, 0, 1, -57.480564, -128.131683)">
    <g transform="translate(202.280405, 237.624976)">
      <g>
        <path d="M 2.6875 0 L 1.1875 0 L 1.1875 -8.984375 L 2.6875 -8.984375 Z M 2.6875 0 "/>
      </g>
    </g>
  </g>
  <g fill="#ffffff" fill-opacity="1" transform="matrix(1, 0, 0, 1, -57.480564, -128.131683)">
    <g transform="translate(216.417044, 237.624976)">
      <g>
        <path d="M 5.15625 -9.015625 C 5.789062 -9.015625 6.410156 -8.890625 7.015625 -8.640625 C 7.617188 -8.398438 8.132812 -8.0625 8.5625 -7.625 L 7.6875 -6.53125 C 7.363281 -6.882812 6.976562 -7.160156 6.53125 -7.359375 C 6.082031 -7.566406 5.632812 -7.671875 5.1875 -7.671875 C 4.28125 -7.671875 3.515625 -7.363281 2.890625 -6.75 C 2.273438 -6.144531 1.96875 -5.398438 1.96875 -4.515625 C 1.96875 -3.628906 2.273438 -2.878906 2.890625 -2.265625 C 3.515625 -1.648438 4.28125 -1.34375 5.1875 -1.34375 C 6.113281 -1.34375 6.945312 -1.695312 7.6875 -2.40625 L 8.578125 -1.40625 C 8.117188 -0.957031 7.582031 -0.597656 6.96875 -0.328125 C 6.351562 -0.0664062 5.734375 0.0625 5.109375 0.0625 C 3.785156 0.0625 2.675781 -0.375 1.78125 -1.25 C 0.882812 -2.125 0.4375 -3.207031 0.4375 -4.5 C 0.4375 -5.769531 0.890625 -6.835938 1.796875 -7.703125 C 2.710938 -8.578125 3.832031 -9.015625 5.15625 -9.015625 Z M 5.15625 -9.015625 "/>
      </g>
    </g>
  </g>
  <g fill="#ffffff" fill-opacity="1" transform="matrix(1, 0, 0, 1, -57.480564, -128.131683)">
    <g transform="translate(235.617666, 237.624976)">
      <g>
        <path d="M 4.125 -9.046875 C 5.289062 -9.046875 6.34375 -8.738281 7.28125 -8.125 L 6.640625 -6.78125 C 5.722656 -7.34375 4.847656 -7.625 4.015625 -7.625 C 3.554688 -7.625 3.195312 -7.539062 2.9375 -7.375 C 2.675781 -7.207031 2.546875 -6.972656 2.546875 -6.671875 C 2.546875 -6.378906 2.664062 -6.128906 2.90625 -5.921875 C 3.144531 -5.710938 3.441406 -5.554688 3.796875 -5.453125 C 4.160156 -5.359375 4.550781 -5.234375 4.96875 -5.078125 C 5.394531 -4.929688 5.785156 -4.773438 6.140625 -4.609375 C 6.503906 -4.441406 6.800781 -4.179688 7.03125 -3.828125 C 7.269531 -3.472656 7.390625 -3.046875 7.390625 -2.546875 C 7.390625 -1.753906 7.070312 -1.125 6.4375 -0.65625 C 5.8125 -0.1875 5 0.046875 4 0.046875 C 3.3125 0.046875 2.644531 -0.078125 2 -0.328125 C 1.363281 -0.585938 0.804688 -0.9375 0.328125 -1.375 L 0.984375 -2.6875 C 1.441406 -2.257812 1.941406 -1.929688 2.484375 -1.703125 C 3.023438 -1.484375 3.539062 -1.375 4.03125 -1.375 C 4.5625 -1.375 4.972656 -1.46875 5.265625 -1.65625 C 5.554688 -1.851562 5.703125 -2.125 5.703125 -2.46875 C 5.703125 -2.769531 5.582031 -3.023438 5.34375 -3.234375 C 5.101562 -3.441406 4.800781 -3.59375 4.4375 -3.6875 C 4.082031 -3.789062 3.695312 -3.910156 3.28125 -4.046875 C 2.863281 -4.191406 2.472656 -4.34375 2.109375 -4.5 C 1.753906 -4.664062 1.457031 -4.921875 1.21875 -5.265625 C 0.976562 -5.617188 0.859375 -6.046875 0.859375 -6.546875 C 0.859375 -7.304688 1.15625 -7.910156 1.75 -8.359375 C 2.351562 -8.816406 3.144531 -9.046875 4.125 -9.046875 Z M 4.125 -9.046875 "/>
      </g>
    </g>
  </g>
  <path stroke-linecap="butt" fill="none" stroke-linejoin="miter" d="M 8.035 10.63 L 251.793 10.63" stroke="#ffffff" stroke-width="1" stroke-opacity="1" stroke-miterlimit="4"/>
  <path stroke-linecap="butt" fill="none" stroke-linejoin="miter" d="M 8.034 105.18 L 59.79 105.181" stroke="#ffffff" stroke-width="1" stroke-opacity="1" stroke-miterlimit="4" transform="matrix(0.999974, 0.007224, -0.007224, 0.999974, 0.760695, -0.242232)"/>
  <path stroke-linecap="butt" fill="none" stroke-linejoin="miter" d="M 200.101 105.743 L 251.856 105.744" stroke="#ffffff" stroke-width="1" stroke-opacity="1" stroke-miterlimit="4" transform="matrix(0.999974, 0.007224, -0.007224, 0.999974, 0.769774, -1.62968)"/>
  <path stroke-linecap="butt" fill="none" stroke-linejoin="miter" d="M -38.471 57.741 L 55.283 57.741" stroke="#ffffff" stroke-width="1" stroke-opacity="1" stroke-miterlimit="4" transform="matrix(0, -1, 1, 0, -49.335003, 66.147003)"/>
  <path stroke-linecap="butt" fill="none" stroke-linejoin="miter" d="M 204.002 58.491 L 299.256 58.491" stroke="#ffffff" stroke-width="1" stroke-opacity="1" stroke-miterlimit="4" transform="matrix(0, -1, 1, 0, 193.138016, 310.120026)"/>
</svg>