<svg xmlns="http://www.w3.org/2000/svg" width="103.275" height="140.392" class="style-svg replaced-svg svg-replaced-1"><g fill="#fff" data-name="drsw logo"><g data-name="Group 18"><path d="M0 135.112a4.874 4.874 0 0 1 4.814-4.97 4.23 4.23 0 0 1 3.261 1.4l-.466.311a4.465 4.465 0 0 0-2.8-1.087 4.433 4.433 0 0 0 0 8.852 4.14 4.14 0 0 0 2.8-1.087l.466.466a4.716 4.716 0 0 1-3.261 1.242A5.109 5.109 0 0 1 0 135.112Z" data-name="Path 73"/><path d="M22.83 139.305h4.193v.621h-4.97v-9.784h.621v9.163Z" data-name="Path 74"/><path d="M41 139.926v-9.784h.621v9.629H41Z" data-name="Path 75"/><path d="M62.897 130.142h.621v9.629h-.777l-5.436-8.7v8.7h-.62v-9.629h.777l5.436 8.7Z" data-name="Path 76"/><path d="M78.582 139.926v-9.784h.621v9.629h-.621Z" data-name="Path 77"/><path d="M93.647 135.112a4.874 4.874 0 0 1 4.814-4.97 4.23 4.23 0 0 1 3.261 1.4l-.466.466a4.465 4.465 0 0 0-2.8-1.087 4.433 4.433 0 0 0 0 8.852 4.14 4.14 0 0 0 2.8-1.087l.466.466a4.716 4.716 0 0 1-3.261 1.242 5.5 5.5 0 0 1-4.814-5.282Z" data-name="Path 78"/></g><g data-name="Group 20"><path d="M49.696 104.204c-.311-.621-.466-1.242-.777-2.019l-.465-1.081c-3.261-8.852-8.076-22.053-11.958-34.011-1.553-4.97.621-7.61 6.523-8.076v-.313c-4.5.155-7.92.311-12.424.311s-8.387-.156-11.959-.311v.466c6.678.621 8.542 3.417 11.337 10.871 3.883 10.716 12.89 34.943 16.307 45.5l.466-.155c.932-2.64 2.174-6.057 3.572-9.784Z" data-name="Path 79"/><g data-name="Group 19"><path d="M93.491 58.86c-4.659 0-7.3-.155-10.405-.311v.466c5.591.311 8.542 1.864 8.7 5.746l2.485.777c2.33-4.659 5.591-5.9 9.007-6.523v-.311c-3.575.156-5.438.156-9.787.156Z" data-name="Path 80"/><path d="M79.669 103.741a2.207 2.207 0 0 1-.311-.932l-.311-.777c-3.417-8.7-8.076-21.742-12.579-34.787-1.708-4.814.155-7.61 6.989-8.231v-.31c-4.348.155-7.61.311-11.492.311-3.572 0-7.3 0-11.337-.311v.466c5.746.621 7.454 5.746 10.25 12.89l.311.777c.155.311.311.777.466 1.087l1.087 2.8c5.746 15.064 11.337 30.128 14.132 38.67l.466-.155q1.4-4.426 3.261-10.25Z" data-name="Path 81"/></g><path d="m91.783 64.606.466 5.436 2.019-4.5Z" data-name="Path 82"/></g><path d="M7.148 111.506c-2.64-3.106-4.5-7.765-4.97-14.132h-.47c-.621 9.629-.466 11.026-.311 12.735.311 2.64 1.4 3.883 5.125 5.125a50.585 50.585 0 0 0 7.61 1.553 10.278 10.278 0 0 1-6.984-5.281Z" data-name="Path 83"/><g data-name="Group 21"><path d="M26.556 61.655c3.727 2.951 5.591 8.386 6.057 13.977h.621c.311-7.92.311-9.163.155-10.56-.311-2.8-1.087-4.5-4.659-5.436a35.976 35.976 0 0 0-8.541-.932 9.823 9.823 0 0 1 6.367 2.951Z" data-name="Path 84"/><path d="M19.879 83.859C12.89 81.995 8.387 78.889 8.387 71.28a14.2 14.2 0 0 1 1.4-6.367 8.6 8.6 0 0 1 6.986-6.054C7.765 59.946 2.485 65.537 2.329 73.923c-.155 10.871 7.144 14.6 15.22 16.773 7.765 2.174 12.424 5.591 12.269 12.579a12.926 12.926 0 0 1-3.883 9.784 9.637 9.637 0 0 1-5.436 3.572c9.007-1.242 15.064-7.144 15.22-16.151.001-9.321-5.124-13.667-15.84-16.621Z" data-name="Path 85"/></g><path d="M80.912 42.553a143.231 143.231 0 0 1-8.542-14.288c7.144-2.33 11.026-7.765 11.182-12.89C84.173 3.883 74.389 0 62.586 0H42.397v.466h16.462v.155c13.356.155 17.394 6.678 17.394 14.754 0 5.125-1.553 8.7-4.659 11.026-2.951 2.174-7.144 3.106-12.735 2.951v.621a53.8 53.8 0 0 0 7.144.311c2.174 3.883 3.417 6.523 5.9 10.871 2.485 4.193 5.125 8.231 7.144 10.25 3.106 3.106 7.144 5.125 13.511 5.125a38.921 38.921 0 0 0 5.746-.466l.155-.466c-5.123.002-10.714-3.106-17.547-13.045Z" data-name="Path 86"/><path d="M26.556 1.553A63.909 63.909 0 0 0 12.89.311H5.28v.621h4.814c8.542.155 13.977 1.242 18.791 3.883 7.145 3.882 10.406 12.579 10.406 23.916 0 15.064-7.92 26.246-19.879 26.867H5.28v.777h10.095a55.507 55.507 0 0 0 14.287-1.864c9.473-3.106 17.7-11.337 17.7-26.4.005-14.755-7.605-23.3-20.806-26.558Z" data-name="Path 87"/></g></svg>