<svg width="100" height="26" fill="none" xmlns="http://www.w3.org/2000/svg"><path d="m13 19.302 5.51-1.396L20.81 25 13 19.302Zm12.68-9.17H15.98L13 1l-2.981 9.132H.32l7.849 5.66-2.981 9.132 7.849-5.66 4.83-3.471 7.811-5.66Z" fill="#219653"/><path d="M39.257 8.523h-3.484V18h-2.344V8.523h-3.437V6.625h9.265v1.898Zm5.43 3.141a6.13 6.13 0 0 0-.812-.062c-.855 0-1.414.289-1.68.867V18h-2.258V9.547h2.133l.062 1.008c.454-.776 1.081-1.164 1.883-1.164.25 0 .485.033.703.101l-.03 2.172Zm6.156 5.477c-.557.677-1.328 1.015-2.312 1.015-.906 0-1.6-.26-2.078-.781-.474-.52-.717-1.284-.727-2.29V9.548h2.258v5.46c0 .881.401 1.321 1.203 1.321.766 0 1.292-.265 1.578-.797V9.547h2.266V18h-2.125l-.063-.86Zm8.47-1.477c0-.276-.139-.492-.415-.648-.27-.162-.708-.305-1.313-.43-2.01-.422-3.015-1.276-3.015-2.563 0-.75.31-1.375.93-1.875.625-.505 1.44-.757 2.445-.757 1.073 0 1.93.252 2.57.757.646.506.969 1.162.969 1.97h-2.258a1.08 1.08 0 0 0-.312-.798c-.209-.213-.534-.32-.977-.32-.38 0-.674.086-.883.258a.814.814 0 0 0-.312.656c0 .25.117.453.351.61.24.15.64.283 1.203.398.563.11 1.037.234 1.422.375 1.193.437 1.79 1.195 1.79 2.273 0 .771-.331 1.396-.993 1.875-.661.474-1.515.711-2.562.711-.709 0-1.339-.125-1.89-.375-.548-.255-.977-.601-1.29-1.039a2.432 2.432 0 0 1-.469-1.43h2.14c.022.402.17.709.446.922.276.214.646.32 1.11.32.432 0 .757-.08.976-.241a.773.773 0 0 0 .336-.649ZM65.67 7.47v2.078h1.446v1.656H65.67v4.219c0 .312.06.536.18.672.12.135.35.203.688.203.25 0 .471-.018.664-.055v1.711a4.649 4.649 0 0 1-1.368.203c-1.583 0-2.39-.8-2.421-2.398v-4.555h-1.235V9.547h1.235V7.469h2.257Zm10.313 6.383c0 1.302-.297 2.346-.89 3.132-.59.782-1.386 1.172-2.391 1.172-.855 0-1.545-.297-2.07-.89v3.984h-2.258V9.547h2.093l.078.828c.547-.656 1.26-.984 2.141-.984 1.042 0 1.852.385 2.43 1.156.578.77.867 1.833.867 3.187v.118Zm-2.258-.165c0-.786-.14-1.393-.422-1.82-.276-.427-.68-.64-1.21-.64-.709 0-1.196.27-1.462.812V15.5c.276.557.769.836 1.477.836 1.078 0 1.617-.883 1.617-2.648ZM79.773 18h-2.266V9.547h2.266V18ZM77.375 7.36c0-.34.112-.618.335-.837.23-.218.54-.328.93-.328.386 0 .693.11.922.328.23.22.344.498.344.836 0 .344-.117.625-.352.844-.229.219-.534.328-.914.328s-.687-.11-.922-.328c-.229-.219-.343-.5-.343-.844ZM84.023 18h-2.266V6h2.266v12Zm1.516-4.305c0-.838.161-1.586.484-2.242a3.554 3.554 0 0 1 1.39-1.523c.61-.36 1.316-.54 2.118-.54 1.14 0 2.07.35 2.789 1.047.724.698 1.128 1.646 1.21 2.844l.016.578c0 1.297-.362 2.339-1.086 3.125-.723.782-1.695 1.172-2.914 1.172-1.218 0-2.192-.39-2.921-1.172-.724-.78-1.086-1.843-1.086-3.187v-.102Zm2.257.164c0 .803.151 1.417.454 1.844.302.422.734.633 1.296.633.547 0 .974-.208 1.282-.625.307-.422.46-1.094.46-2.016 0-.786-.153-1.396-.46-1.828-.308-.432-.74-.648-1.297-.648-.552 0-.98.216-1.281.648-.302.427-.454 1.091-.454 1.992Zm9.844-6.39v2.078h1.445v1.656H97.64v4.219c0 .312.06.536.18.672.12.135.349.203.687.203.25 0 .472-.018.664-.055v1.711a4.648 4.648 0 0 1-1.367.203c-1.583 0-2.39-.8-2.422-2.398v-4.555h-1.234V9.547h1.234V7.469h2.258Z" fill="#000"/></svg>